# xmcd
#
# Track frame offsets:
#	150
#	16251
#	35349
#	48280
#	67285
#	86222
#	107079
#	121921
#	135486
#	154236
#	172801
#	194817
#	214776
#	232117
#
# Disc length: 3404 seconds
#
# Revision: 1
# Processed by: cddbd v1.5.1PL0 Copyright (c) Steve Scherf et al.
# Submitted via: audiograbber 1.83.01
#
DISCID=c60d4a0e
DTITLE=Marvin, Hank - Guitar Ballads CD1 von 2
DYEAR=1900
DGENRE=Instrumental
TTITLE0=I will Always Love You
TTITLE1=The Day I Met Marie
TTITLE2=When the Girl In Your Arms Is The Girl In Your Heart
TTITLE3=Wichita Lineman
TTITLE4=Travellin' Light
TTITLE5=Take Five
TTITLE6=Moontalk
TTITLE7=The Next Time
TTITLE8=Everything I Do
TTITLE9=Sumiko
TTITLE10=Rikki, Don't Lose That Number
TTITLE11=Cable Beach
TTITLE12=Crying
TTITLE13=Space Oddity
EXTD=
EXTT0=
EXTT1=
EXTT2=
EXTT3=
EXTT4=
EXTT5=
EXTT6=
EXTT7=
EXTT8=
EXTT9=
EXTT10=
EXTT11=
EXTT12=
EXTT13=
PLAYORDER=
